# ProBuilder 5.0.7
# https://unity3d.com/unity/features/worldbuilding/probuilder
# 19.05.2023 14:26:10

mtllib ./Circle.mtl
o Circle

g Cylinder
v -2.462019 -0.5 0.4341204
v -2.5 -0.5 0
v -2.462019 0.5 0.4341204
v -2.5 0.5 0
v -1.91 -0.5 0
v -1.880983 -0.5 0.3316679
v -1.91 0.5 0
v -1.880983 0.5 0.3316679
v -2.349232 -0.5 0.8550503
v -2.349232 0.5 0.8550503
v -1.794813 -0.5 0.6532583
v -1.794813 0.5 0.6532583
v -2.165063 -0.5 1.25
v -2.165063 0.5 1.25
v -1.654109 -0.5 0.9549999
v -1.654109 0.5 0.9549999
v -1.915111 -0.5 1.606969
v -1.915111 0.5 1.606969
v -1.463145 -0.5 1.227724
v -1.463145 0.5 1.227724
v -1.606969 -0.5 1.915111
v -1.606969 0.5 1.915111
v -1.227725 -0.5 1.463145
v -1.227725 0.5 1.463145
v -1.25 -0.5 2.165064
v -1.25 0.5 2.165064
v -0.9549999 -0.5 1.654109
v -0.9549999 0.5 1.654109
v -0.8550503 -0.5 2.349232
v -0.8550503 0.5 2.349232
v -0.6532586 -0.5 1.794813
v -0.6532586 0.5 1.794813
v -0.4341207 -0.5 2.462019
v -0.4341207 0.5 2.462019
v -0.3316681 -0.5 1.880983
v -0.3316681 0.5 1.880983
v 0 -0.5 2.5
v 0 0.5 2.5
v 0 -0.5 1.91
v 0 0.5 1.91
v 0.4341204 -0.5 2.462019
v 0.4341204 0.5 2.462019
v 0.331668 -0.5 1.880983
v 0.331668 0.5 1.880983
v 0.8550503 -0.5 2.349232
v 0.8550503 0.5 2.349232
v 0.6532584 -0.5 1.794813
v 0.6532584 0.5 1.794813
v 1.25 -0.5 2.165063
v 1.25 0.5 2.165063
v 0.9550002 -0.5 1.654109
v 0.9550002 0.5 1.654109
v 1.606969 -0.5 1.915111
v 1.606969 0.5 1.915111
v 1.227724 -0.5 1.463145
v 1.227724 0.5 1.463145
v 1.915111 -0.5 1.606969
v 1.915111 0.5 1.606969
v 1.463145 -0.5 1.227725
v 1.463145 0.5 1.227725
v 2.165063 -0.5 1.25
v 2.165063 0.5 1.25
v 1.654108 -0.5 0.9550002
v 1.654108 0.5 0.9550002
v 2.349231 -0.5 0.8550506
v 2.349231 0.5 0.8550506
v 1.794813 -0.5 0.6532586
v 1.794813 0.5 0.6532586
v 2.462019 -0.5 0.4341207
v 2.462019 0.5 0.4341207
v 1.880983 -0.5 0.3316684
v 1.880983 0.5 0.3316684
v 2.5 -0.5 -2.384186E-07
v 2.5 0.5 -2.384186E-07
v 1.91 -0.5 -2.384186E-07
v 1.91 0.5 -2.384186E-07
v 2.462019 -0.5 -0.4341207
v 2.462019 0.5 -0.4341207
v 1.880983 -0.5 -0.3316681
v 1.880983 0.5 -0.3316681
v 2.349231 -0.5 -0.8550503
v 2.349231 0.5 -0.8550503
v 1.794813 -0.5 -0.6532586
v 1.794813 0.5 -0.6532586
v 2.165063 -0.5 -1.25
v 2.165063 0.5 -1.25
v 1.654108 -0.5 -0.9549999
v 1.654108 0.5 -0.9549999
v 1.915111 -0.5 -1.606969
v 1.915111 0.5 -1.606969
v 1.463145 -0.5 -1.227724
v 1.463145 0.5 -1.227724
v 1.606969 -0.5 -1.915111
v 1.606969 0.5 -1.915111
v 1.227724 -0.5 -1.463145
v 1.227724 0.5 -1.463145
v 1.25 -0.5 -2.165064
v 1.25 0.5 -2.165064
v 0.9549998 -0.5 -1.654109
v 0.9549998 0.5 -1.654109
v 0.8550501 -0.5 -2.349232
v 0.8550501 0.5 -2.349232
v 0.6532583 -0.5 -1.794813
v 0.6532583 0.5 -1.794813
v 0.4341203 -0.5 -2.462019
v 0.4341203 0.5 -2.462019
v 0.3316679 -0.5 -1.880983
v 0.3316679 0.5 -1.880983
v 0 -0.5 -2.5
v 0 0.5 -2.5
v 0 -0.5 -1.91
v 0 0.5 -1.91
v -0.4341204 -0.5 -2.462019
v -0.4341204 0.5 -2.462019
v -0.3316679 -0.5 -1.880983
v -0.3316679 0.5 -1.880983
v -0.8550501 -0.5 -2.349231
v -0.8550501 0.5 -2.349231
v -0.6532583 -0.5 -1.794813
v -0.6532583 0.5 -1.794813
v -1.25 -0.5 -2.165064
v -1.25 0.5 -2.165064
v -0.9549999 -0.5 -1.654109
v -0.9549999 0.5 -1.654109
v -1.606969 -0.5 -1.915111
v -1.606969 0.5 -1.915111
v -1.227724 -0.5 -1.463145
v -1.227724 0.5 -1.463145
v -1.915111 -0.5 -1.606969
v -1.915111 0.5 -1.606969
v -1.463145 -0.5 -1.227725
v -1.463145 0.5 -1.227725
v -2.165063 -0.5 -1.25
v -2.165063 0.5 -1.25
v -1.654109 -0.5 -0.9550004
v -1.654109 0.5 -0.9550004
v -2.349232 -0.5 -0.855051
v -2.349232 0.5 -0.855051
v -1.794813 -0.5 -0.6532588
v -1.794813 0.5 -0.6532588
v -2.462019 -0.5 -0.4341211
v -2.462019 0.5 -0.4341211
v -1.880983 -0.5 -0.3316686
v -1.880983 0.5 -0.3316686

vt 0.2178897 -0.5
vt -0.217889 -0.5
vt 0.2178897 0.5
vt -0.217889 0.5
vt 0.1664663 -0.5
vt -0.1664685 -0.5
vt 0.1664663 0.5
vt -0.1664685 0.5
vt -2.5 0
vt -2.462019 0.4341204
vt -1.91 0
vt -1.880983 0.3316679
vt 2.462019 0.4341204
vt 2.5 0
vt 1.880983 0.3316679
vt 1.91 0
vt -2.349232 0.8550503
vt -1.794813 0.6532583
vt 2.349232 0.8550503
vt 1.794813 0.6532583
vt -2.165063 1.25
vt -1.654109 0.9549999
vt 2.165063 1.25
vt 1.654109 0.9549999
vt -1.915111 1.606969
vt -1.463145 1.227724
vt 1.915111 1.606969
vt 1.463145 1.227724
vt -1.606969 1.915111
vt -1.227725 1.463145
vt 1.606969 1.915111
vt 1.227725 1.463145
vt -1.25 2.165064
vt -0.9549999 1.654109
vt 1.25 2.165064
vt 0.9549999 1.654109
vt -0.8550503 2.349232
vt -0.6532586 1.794813
vt 0.8550503 2.349232
vt 0.6532586 1.794813
vt -0.4341207 2.462019
vt -0.3316681 1.880983
vt 0.4341207 2.462019
vt 0.3316681 1.880983
vt 0 2.5
vt 0 1.91
vt 0.9550002 1.654109
vt -0.9550002 1.654109
vt 1.654108 0.9550002
vt -1.654108 0.9550002
vt 1.91 -2.384186E-07
vt -1.91 -2.384186E-07
vt 2.462019 -0.4341207
vt 1.880983 -0.3316681
vt -2.462019 -0.4341207
vt -1.880983 -0.3316681
vt 2.349231 -0.8550503
vt 1.794813 -0.6532586
vt -2.349231 -0.8550503
vt -1.794813 -0.6532586
vt 2.165063 -1.25
vt 1.654108 -0.9549999
vt -2.165063 -1.25
vt -1.654108 -0.9549999
vt 1.915111 -1.606969
vt 1.463145 -1.227724
vt -1.915111 -1.606969
vt -1.463145 -1.227724
vt 1.606969 -1.915111
vt 1.227724 -1.463145
vt -1.606969 -1.915111
vt -1.227724 -1.463145
vt 1.25 -2.165064
vt 0.9549998 -1.654109
vt -1.25 -2.165064
vt -0.9549998 -1.654109
vt 0.8550501 -2.349232
vt 0.6532583 -1.794813
vt -0.8550501 -2.349232
vt -0.6532583 -1.794813
vt 0.4341203 -2.462019
vt 0.3316679 -1.880983
vt -0.4341203 -2.462019
vt -0.3316679 -1.880983
vt 0 -2.5
vt 0 -1.91
vt -2.165063 -1.25
vt -1.654109 -0.9550004
vt 2.165063 -1.25
vt 1.654109 -0.9550004

vn -0.9848078 0 0.173648
vn -1 0 7.105088E-08
vn 1 0 -9.3488E-08
vn 0.9848078 0 -0.1736476
vn -0.9396926 0 0.3420203
vn 0.9396926 0 -0.3420202
vn -0.8660253 0 0.5000003
vn 0.8660251 0 -0.5000005
vn -0.7660446 0 0.6427875
vn 0.7660446 0 -0.6427875
vn -0.642788 0 0.7660441
vn 0.6427879 0 -0.7660442
vn -0.5000001 0 0.8660254
vn 0.5000003 0 -0.8660253
vn -0.3420199 0 0.9396927
vn 0.3420203 0 -0.9396926
vn -0.173648 0 0.9848078
vn 0.1736476 0 -0.9848078
vn 2.243712E-08 0 1
vn -1.495808E-08 0 -1
vn 0.173648 0 0.9848078
vn -0.1736476 0 -0.9848078
vn 0.3420203 0 0.9396926
vn -0.3420201 0 -0.9396926
vn 0.5000002 0 0.8660253
vn -0.5000004 0 -0.8660252
vn 0.6427877 0 0.7660444
vn -0.6427876 0 -0.7660445
vn 0.7660446 0 0.6427875
vn -0.7660444 0 -0.6427876
vn 0.8660253 0 0.5000002
vn -0.8660254 0 -0.4999999
vn 0.9396926 0 0.3420204
vn -0.9396925 0 -0.3420205
vn 0.9848077 0 0.1736482
vn -0.9848077 0 -0.1736483
vn 0.8660255 0 -0.4999999
vn -0.8660254 0 0.4999999
vn 0.4999999 0 -0.8660255
vn -0.5 0 0.8660254
vn -0.4999997 0 -0.8660256
vn 0.5 0 0.8660254
vn -0.866025 0 -0.5000007
vn 0 -1 0
vn 0 1 0

usemtl ProBuilderDefault
f 3/3/1 4/4/2 2/2/2 1/1/1
f 7/7/3 8/8/4 6/6/4 5/5/3
f 10/3/5 3/4/1 1/2/1 9/1/5
f 8/7/4 12/8/6 11/6/6 6/5/4
f 14/3/7 10/4/5 9/2/5 13/1/7
f 12/7/6 16/8/8 15/6/8 11/5/6
f 18/3/9 14/4/7 13/2/7 17/1/9
f 16/7/8 20/8/10 19/6/10 15/5/8
f 22/3/11 18/4/9 17/2/9 21/1/11
f 20/7/10 24/8/12 23/6/12 19/5/10
f 26/3/13 22/4/11 21/2/11 25/1/13
f 24/7/12 28/8/14 27/6/14 23/5/12
f 30/3/15 26/4/13 25/2/13 29/1/15
f 28/7/14 32/8/16 31/6/16 27/5/14
f 34/3/17 30/4/15 29/2/15 33/1/17
f 32/7/16 36/8/18 35/6/18 31/5/16
f 38/3/19 34/4/17 33/2/17 37/1/19
f 36/7/18 40/8/20 39/6/20 35/5/18
f 42/3/21 38/4/19 37/2/19 41/1/21
f 40/7/20 44/8/22 43/6/22 39/5/20
f 46/3/23 42/4/21 41/2/21 45/1/23
f 44/7/22 48/8/24 47/6/24 43/5/22
f 50/3/25 46/4/23 45/2/23 49/1/25
f 48/7/24 52/8/26 51/6/26 47/5/24
f 54/3/27 50/4/25 49/2/25 53/1/27
f 52/7/26 56/8/28 55/6/28 51/5/26
f 58/3/29 54/4/27 53/2/27 57/1/29
f 56/7/28 60/8/30 59/6/30 55/5/28
f 62/3/31 58/4/29 57/2/29 61/1/31
f 60/7/30 64/8/32 63/6/32 59/5/30
f 66/3/33 62/4/31 61/2/31 65/1/33
f 64/7/32 68/8/34 67/6/34 63/5/32
f 70/3/35 66/4/33 65/2/33 69/1/35
f 68/7/34 72/8/36 71/6/36 67/5/34
f 74/3/3 70/4/35 69/2/35 73/1/3
f 72/7/36 76/8/2 75/6/2 71/5/36
f 78/3/4 74/4/3 73/2/3 77/1/4
f 76/7/2 80/8/1 79/6/1 75/5/2
f 82/3/6 78/4/4 77/2/4 81/1/6
f 80/7/1 84/8/5 83/6/5 79/5/1
f 86/3/37 82/4/6 81/2/6 85/1/37
f 84/7/5 88/8/38 87/6/38 83/5/5
f 90/3/10 86/4/37 85/2/37 89/1/10
f 88/7/38 92/8/9 91/6/9 87/5/38
f 94/3/12 90/4/10 89/2/10 93/1/12
f 92/7/9 96/8/11 95/6/11 91/5/9
f 98/3/39 94/4/12 93/2/12 97/1/39
f 96/7/11 100/8/40 99/6/40 95/5/11
f 102/3/16 98/4/39 97/2/39 101/1/16
f 100/7/40 104/8/15 103/6/15 99/5/40
f 106/3/18 102/4/16 101/2/16 105/1/18
f 104/7/15 108/8/17 107/6/17 103/5/15
f 110/3/20 106/4/18 105/2/18 109/1/20
f 108/7/17 112/8/19 111/6/19 107/5/17
f 114/3/22 110/4/20 109/2/20 113/1/22
f 112/7/19 116/8/21 115/6/21 111/5/19
f 118/3/24 114/4/22 113/2/22 117/1/24
f 116/7/21 120/8/23 119/6/23 115/5/21
f 122/3/41 118/4/24 117/2/24 121/1/41
f 120/7/23 124/8/42 123/6/42 119/5/23
f 126/3/28 122/4/41 121/2/41 125/1/28
f 124/7/42 128/8/27 127/6/27 123/5/42
f 130/3/30 126/4/28 125/2/28 129/1/30
f 128/7/27 132/8/29 131/6/29 127/5/27
f 134/3/43 130/4/30 129/2/30 133/1/43
f 132/7/29 136/8/31 135/6/31 131/5/29
f 138/3/34 134/4/43 133/2/43 137/1/34
f 136/7/31 140/8/33 139/6/33 135/5/31
f 142/3/36 138/4/34 137/2/34 141/1/36
f 140/7/33 144/8/35 143/6/35 139/5/33
f 4/3/2 142/4/36 141/2/36 2/1/2
f 144/7/35 7/8/3 5/6/3 143/5/35
f 5/11/44 6/12/44 1/10/44 2/9/44
f 8/15/45 7/16/45 4/14/45 3/13/45
f 6/12/44 11/18/44 9/17/44 1/10/44
f 12/20/45 8/15/45 3/13/45 10/19/45
f 11/18/44 15/22/44 13/21/44 9/17/44
f 16/24/45 12/20/45 10/19/45 14/23/45
f 15/22/44 19/26/44 17/25/44 13/21/44
f 20/28/45 16/24/45 14/23/45 18/27/45
f 19/26/44 23/30/44 21/29/44 17/25/44
f 24/32/45 20/28/45 18/27/45 22/31/45
f 23/30/44 27/34/44 25/33/44 21/29/44
f 28/36/45 24/32/45 22/31/45 26/35/45
f 27/34/44 31/38/44 29/37/44 25/33/44
f 32/40/45 28/36/45 26/35/45 30/39/45
f 31/38/44 35/42/44 33/41/44 29/37/44
f 36/44/45 32/40/45 30/39/45 34/43/45
f 35/42/44 39/46/44 37/45/44 33/41/44
f 40/46/45 36/44/45 34/43/45 38/45/45
f 39/46/44 43/44/44 41/43/44 37/45/44
f 44/42/45 40/46/45 38/45/45 42/41/45
f 43/44/44 47/40/44 45/39/44 41/43/44
f 48/38/45 44/42/45 42/41/45 46/37/45
f 47/40/44 51/47/44 49/35/44 45/39/44
f 52/48/45 48/38/45 46/37/45 50/33/45
f 51/47/44 55/32/44 53/31/44 49/35/44
f 56/30/45 52/48/45 50/33/45 54/29/45
f 55/32/44 59/28/44 57/27/44 53/31/44
f 60/26/45 56/30/45 54/29/45 58/25/45
f 59/28/44 63/49/44 61/23/44 57/27/44
f 64/50/45 60/26/45 58/25/45 62/21/45
f 63/49/44 67/20/44 65/19/44 61/23/44
f 68/18/45 64/50/45 62/21/45 66/17/45
f 67/20/44 71/15/44 69/13/44 65/19/44
f 72/12/45 68/18/45 66/17/45 70/10/45
f 71/15/44 75/51/44 73/14/44 69/13/44
f 76/52/45 72/12/45 70/10/45 74/9/45
f 75/51/44 79/54/44 77/53/44 73/14/44
f 80/56/45 76/52/45 74/9/45 78/55/45
f 79/54/44 83/58/44 81/57/44 77/53/44
f 84/60/45 80/56/45 78/55/45 82/59/45
f 83/58/44 87/62/44 85/61/44 81/57/44
f 88/64/45 84/60/45 82/59/45 86/63/45
f 87/62/44 91/66/44 89/65/44 85/61/44
f 92/68/45 88/64/45 86/63/45 90/67/45
f 91/66/44 95/70/44 93/69/44 89/65/44
f 96/72/45 92/68/45 90/67/45 94/71/45
f 95/70/44 99/74/44 97/73/44 93/69/44
f 100/76/45 96/72/45 94/71/45 98/75/45
f 99/74/44 103/78/44 101/77/44 97/73/44
f 104/80/45 100/76/45 98/75/45 102/79/45
f 103/78/44 107/82/44 105/81/44 101/77/44
f 108/84/45 104/80/45 102/79/45 106/83/45
f 107/82/44 111/86/44 109/85/44 105/81/44
f 112/86/45 108/84/45 106/83/45 110/85/45
f 111/86/44 115/84/44 113/83/44 109/85/44
f 116/82/45 112/86/45 110/85/45 114/81/45
f 115/84/44 119/80/44 117/79/44 113/83/44
f 120/78/45 116/82/45 114/81/45 118/77/45
f 119/80/44 123/76/44 121/75/44 117/79/44
f 124/74/45 120/78/45 118/77/45 122/73/45
f 123/76/44 127/72/44 125/71/44 121/75/44
f 128/70/45 124/74/45 122/73/45 126/69/45
f 127/72/44 131/68/44 129/67/44 125/71/44
f 132/66/45 128/70/45 126/69/45 130/65/45
f 131/68/44 135/88/44 133/87/44 129/67/44
f 136/90/45 132/66/45 130/65/45 134/89/45
f 135/88/44 139/60/44 137/59/44 133/87/44
f 140/58/45 136/90/45 134/89/45 138/57/45
f 139/60/44 143/56/44 141/55/44 137/59/44
f 144/54/45 140/58/45 138/57/45 142/53/45
f 143/56/44 5/11/44 2/9/44 141/55/44
f 7/16/45 144/54/45 142/53/45 4/14/45

