# ProBuilder 5.0.7
# https://unity3d.com/unity/features/worldbuilding/probuilder
# 21.05.2023 12:18:21

mtllib ./Obstacle.mtl
o Obstacle

g Pipe
v -1.606969 -0.25 -1.915111
v -1.25 -0.25 -2.165064
v -1.606969 0.25 -1.915111
v -1.25 0.25 -2.165064
v -1.125 -0.25 -1.948557
v -1.446272 -0.25 -1.7236
v -1.125 0.25 -1.948557
v -1.446272 0.25 -1.7236
v -1.915111 -0.25 -1.606969
v -1.915111 0.25 -1.606969
v -1.7236 -0.25 -1.446272
v -1.7236 0.25 -1.446272
v -2.165063 -0.25 -1.25
v -2.165063 0.25 -1.25
v -1.948557 -0.25 -1.125
v -1.948557 0.25 -1.125
v -2.349231 -0.25 -0.855051
v -2.349231 0.25 -0.855051
v -2.114308 -0.25 -0.7695458
v -2.114308 0.25 -0.7695458
v -2.462019 -0.25 -0.4341211
v -2.462019 0.25 -0.4341211
v -2.215817 -0.25 -0.390709
v -2.215817 0.25 -0.390709
v -2.5 -0.25 0
v -2.5 0.25 0
v -2.25 -0.25 0
v -2.25 0.25 0

vt 0.2178894 -0.25
vt -0.2178893 -0.25
vt 0.2178894 0.25
vt -0.2178893 0.25
vt 0.1961009 -0.25
vt -0.1961 -0.25
vt 0.1961009 0.25
vt -0.1961 0.25
vt -1.25 -2.165064
vt -1.606969 -1.915111
vt -1.125 -1.948557
vt -1.446272 -1.7236
vt 1.606969 -1.915111
vt 1.25 -2.165064
vt 1.446272 -1.7236
vt 1.125 -1.948557
vt -1.915111 -1.606969
vt -1.7236 -1.446272
vt 1.915111 -1.606969
vt 1.7236 -1.446272
vt -2.165063 -1.25
vt -1.948557 -1.125
vt 2.165063 -1.25
vt 1.948557 -1.125
vt -2.349231 -0.855051
vt -2.114308 -0.7695458
vt 2.349231 -0.855051
vt 2.114308 -0.7695458
vt -2.462019 -0.4341211
vt -2.215817 -0.390709
vt 2.462019 -0.4341211
vt 2.215817 -0.390709
vt -2.5 0
vt -2.25 0
vt 2.5 0
vt 2.25 0
vt 2.5 -0.25
vt 2.5 0.25
vt 2.25 0.25
vt 2.25 -0.25
vt -2.5 0.25
vt -2.5 -0.25
vt -2.25 -0.25
vt -2.25 0.25

vn -0.6427875 0 -0.7660446
vn -0.5735763 0 -0.8191521
vn 0.5735765 0 0.819152
vn 0.6427876 0 0.7660445
vn -0.7660443 0 -0.6427879
vn 0.7660443 0 0.6427879
vn -0.8660252 0 -0.5000004
vn 0.8660253 0 0.5000004
vn -0.9396926 0 -0.3420204
vn 0.9396926 0 0.3420204
vn -0.9848077 0 -0.1736482
vn 0.9848077 0 0.1736482
vn -0.9961947 0 -0.08715547
vn 0.9961947 0 0.08715558
vn 0 -1 0
vn 0 1 0
vn 0.8660253 0 -0.5000002
vn 0 0 1

usemtl ProBuilderDefault
f 3/3/1 4/4/2 2/2/2 1/1/1
f 7/7/3 8/8/4 6/6/4 5/5/3
f 10/3/5 3/4/1 1/2/1 9/1/5
f 8/7/4 12/8/6 11/6/6 6/5/4
f 14/3/7 10/4/5 9/2/5 13/1/7
f 12/7/6 16/8/8 15/6/8 11/5/6
f 18/3/9 14/4/7 13/2/7 17/1/9
f 16/7/8 20/8/10 19/6/10 15/5/8
f 22/3/11 18/4/9 17/2/9 21/1/11
f 20/7/10 24/8/12 23/6/12 19/5/10
f 26/3/13 22/4/11 21/2/11 25/1/13
f 24/7/12 28/8/14 27/6/14 23/5/12
f 5/11/15 6/12/15 1/10/15 2/9/15
f 8/15/16 7/16/16 4/14/16 3/13/16
f 6/12/15 11/18/15 9/17/15 1/10/15
f 12/20/16 8/15/16 3/13/16 10/19/16
f 11/18/15 15/22/15 13/21/15 9/17/15
f 16/24/16 12/20/16 10/19/16 14/23/16
f 15/22/15 19/26/15 17/25/15 13/21/15
f 20/28/16 16/24/16 14/23/16 18/27/16
f 19/26/15 23/30/15 21/29/15 17/25/15
f 24/32/16 20/28/16 18/27/16 22/31/16
f 23/30/15 27/34/15 25/33/15 21/29/15
f 28/36/16 24/32/16 22/31/16 26/35/16
f 2/37/17 4/38/17 7/39/17 5/40/17
f 28/44/18 26/41/18 25/42/18 27/43/18

