# ProBuilder 5.0.7
# https://unity3d.com/unity/features/worldbuilding/probuilder
# 19.05.2023 14:24:48

mtllib ./Platform.mtl
o Platform

g Cylinder
v -2.494968 -0.5 0
v -2.494968 0.5 0
v -2.454792 -0.5 0.4463923
v -2.454792 0.5 0.4463923
v -2.335555 -0.5 0.878437
v -2.335555 0.5 0.878437
v -2.14109 -0.5 1.282248
v -2.14109 0.5 1.282248
v -1.877647 -0.5 1.644847
v -1.877647 0.5 1.644847
v -1.553693 -0.5 1.954578
v -1.553693 0.5 1.954578
v -1.17964 -0.5 2.201488
v -1.17964 0.5 2.201488
v -0.7675104 -0.5 2.377642
v -0.7675104 0.5 2.377642
v -0.3305511 -0.5 2.477374
v -0.3305511 0.5 2.477374
v 0.1171939 -0.5 2.497483
v 0.1171939 0.5 2.497483
v 0.5613341 -0.5 2.43732
v 0.5613341 0.5 2.43732
v 0.9875948 -0.5 2.29882
v 0.9875948 0.5 2.29882
v 1.382274 -0.5 2.086433
v 1.382274 0.5 2.086433
v 1.732688 -0.5 1.806988
v 1.732688 0.5 1.806988
v 2.027575 -0.5 1.469463
v 2.027575 0.5 1.469463
v 2.257454 -0.5 1.084709
v 2.257454 0.5 1.084709
v 2.414939 -0.5 0.6650922
v 2.414939 0.5 0.6650922
v 2.494968 -0.5 0.2240982
v 2.494968 0.5 0.2240982
v 2.494968 -0.5 -0.224098
v 2.494968 0.5 -0.224098
v 2.414939 -0.5 -0.665092
v 2.414939 0.5 -0.665092
v 2.257454 -0.5 -1.084709
v 2.257454 0.5 -1.084709
v 2.027575 -0.5 -1.469463
v 2.027575 0.5 -1.469463
v 1.732688 -0.5 -1.806988
v 1.732688 0.5 -1.806988
v 1.382275 -0.5 -2.086433
v 1.382275 0.5 -2.086433
v 0.987595 -0.5 -2.298819
v 0.987595 0.5 -2.298819
v 0.5613346 -0.5 -2.43732
v 0.5613346 0.5 -2.43732
v 0.1171954 -0.5 -2.497483
v 0.1171954 0.5 -2.497483
v -0.3305511 -0.5 -2.477374
v -0.3305511 0.5 -2.477374
v -0.7675109 -0.5 -2.377641
v -0.7675109 0.5 -2.377641
v -1.179639 -0.5 -2.201489
v -1.179639 0.5 -2.201489
v -1.553693 -0.5 -1.954578
v -1.553693 0.5 -1.954578
v -1.877646 -0.5 -1.644847
v -1.877646 0.5 -1.644847
v -2.14109 -0.5 -1.282248
v -2.14109 0.5 -1.282248
v -2.335555 -0.5 -0.8784381
v -2.335555 0.5 -0.8784381
v -2.454792 -0.5 -0.4463921
v -2.454792 0.5 -0.4463921
v 0.005032063 -0.5 0
v 0.005032063 0.5 0

vt -0.2236492 -0.5
vt -0.2236492 0.5
vt 0.2245475 -0.5
vt 0.2245475 0.5
vt -0.2227578 -0.5
vt -0.2227578 0.5
vt 0.2254386 -0.5
vt 0.2254386 0.5
vt -0.221914 -0.5
vt -0.221914 0.5
vt 0.2262828 -0.5
vt 0.2262828 0.5
vt -0.2211394 -0.5
vt -0.2211394 0.5
vt 0.2270568 -0.5
vt 0.2270568 0.5
vt -0.2204637 -0.5
vt -0.2204637 0.5
vt 0.2277327 -0.5
vt 0.2277327 0.5
vt -0.2198988 -0.5
vt -0.2198988 0.5
vt 0.2282976 -0.5
vt 0.2282976 0.5
vt -0.2194683 -0.5
vt -0.2194683 0.5
vt 0.2287287 -0.5
vt 0.2287287 0.5
vt 0.2290003 -0.5
vt 0.2290003 0.5
vt -0.2207883 -0.5
vt -0.2207883 0.5
vt 0.2266793 -0.5
vt 0.2266793 0.5
vt -0.2223304 -0.5
vt -0.2223304 0.5
vt 0.2258658 -0.5
vt 0.2258658 0.5
vt -0.223199 -0.5
vt -0.223199 0.5
vt -0.2240982 -0.5
vt -0.2240982 0.5
vt 0.224098 -0.5
vt 0.224098 0.5
vt -0.224998 -0.5
vt -0.224998 0.5
vt 0.2231988 -0.5
vt 0.2231988 0.5
vt -0.225866 -0.5
vt -0.225866 0.5
vt 0.2223302 -0.5
vt 0.2223302 0.5
vt -0.2266789 -0.5
vt -0.2266789 0.5
vt 0.2215177 -0.5
vt 0.2215177 0.5
vt -0.2274097 -0.5
vt -0.2274097 0.5
vt 0.2207877 -0.5
vt 0.2207877 0.5
vt -0.2280315 -0.5
vt -0.2280315 0.5
vt 0.2201641 -0.5
vt 0.2201641 0.5
vt -0.2285301 -0.5
vt -0.2285301 0.5
vt 0.2196666 -0.5
vt 0.2196666 0.5
vt 0.2193126 -0.5
vt 0.2193126 0.5
vt -0.2290848 -0.5
vt -0.2290848 0.5
vt -0.2277346 -0.5
vt -0.2277346 0.5
vt 0.2211405 -0.5
vt 0.2211405 0.5
vt -0.2262822 -0.5
vt -0.2262822 0.5
vt -0.2254366 -0.5
vt -0.2254366 0.5
vt 0.2227613 -0.5
vt 0.2227613 0.5
vt 0.2236467 -0.5
vt 0.2236467 0.5
vt -2.494968 0
vt 0.005032063 0
vt -2.454792 0.4463923
vt 2.494968 0
vt -0.005032063 0
vt 2.454792 0.4463923
vt -2.335555 0.878437
vt 2.335555 0.878437
vt -2.14109 1.282248
vt 2.14109 1.282248
vt -1.877647 1.644847
vt 1.877647 1.644847
vt -1.553693 1.954578
vt 1.553693 1.954578
vt -1.17964 2.201488
vt 1.17964 2.201488
vt -0.7675104 2.377642
vt 0.7675104 2.377642
vt -0.3305511 2.477374
vt 0.3305511 2.477374
vt 0.1171939 2.497483
vt -0.1171939 2.497483
vt 0.5613341 2.43732
vt -0.5613341 2.43732
vt 0.9875948 2.29882
vt -0.9875948 2.29882
vt 1.382274 2.086433
vt -1.382274 2.086433
vt 1.732688 1.806988
vt -1.732688 1.806988
vt 2.027575 1.469463
vt -2.027575 1.469463
vt 2.257454 1.084709
vt -2.257454 1.084709
vt 2.414939 0.6650922
vt -2.414939 0.6650922
vt 2.494968 0.2240982
vt -2.494968 0.2240982
vt 2.494968 -0.224098
vt -2.494968 -0.224098
vt 2.414939 -0.665092
vt -2.414939 -0.665092
vt 2.257454 -1.084709
vt -2.257454 -1.084709
vt 2.027575 -1.469463
vt -2.027575 -1.469463
vt 1.732688 -1.806988
vt -1.732688 -1.806988
vt 1.382275 -2.086433
vt -1.382275 -2.086433
vt 0.987595 -2.298819
vt -0.987595 -2.298819
vt 0.5613346 -2.43732
vt -0.5613346 -2.43732
vt 0.1171954 -2.497483
vt -0.1171954 -2.497483
vt -0.3305511 -2.477374
vt 0.3305511 -2.477374
vt -0.7675109 -2.377641
vt 0.7675109 -2.377641
vt -1.179639 -2.201489
vt 1.179639 -2.201489
vt -1.553693 -1.954578
vt 1.553693 -1.954578
vt -1.877646 -1.644847
vt 1.877646 -1.644847
vt -2.14109 -1.282248
vt 2.14109 -1.282248
vt -2.335555 -0.8784381
vt 2.335555 -0.8784381
vt -2.454792 -0.4463921
vt 2.454792 -0.4463921

vn -1 0 5.04947E-07
vn -0.9839296 0 0.178557
vn -0.936235 0 0.3513743
vn -0.858449 0 0.512899
vn -0.7530712 0 0.657939
vn -0.6234894 0 0.7818317
vn -0.4738692 0 0.8805953
vn -0.3090169 0 0.9510565
vn -0.134233 0 0.9909498
vn 0.04486449 0 0.9989931
vn 0.2225208 0 0.974928
vn 0.3930248 0 0.9195279
vn 0.550897 0 0.8345733
vn 0.6910626 0 0.7227949
vn 0.8090171 0 0.5877852
vn 0.9009689 0 0.4338836
vn 0.9639629 0 0.2660369
vn 0.9959743 0 0.08963948
vn 0.9959743 0 -0.08963948
vn 0.9639629 0 -0.2660369
vn 0.900969 0 -0.4338835
vn 0.8090171 0 -0.5877852
vn 0.6910627 0 -0.7227948
vn 0.5508971 0 -0.8345732
vn 0.3930251 0 -0.9195278
vn 0.222521 0 -0.9749279
vn 0.04486497 0 -0.998993
vn -0.1342331 0 -0.9909498
vn -0.3090169 0 -0.9510565
vn -0.4738687 0 -0.8805955
vn -0.6234897 0 -0.7818315
vn -0.7530714 0 -0.6579388
vn -0.8584489 0 -0.5128992
vn -0.9362348 0 -0.351375
vn -0.9839296 0 -0.1785571
vn 0 -1 0
vn 0 1 0

usemtl ProBuilderDefault
f 1/85/36 71/86/36 3/87/36
f 3/87/36 71/86/36 5/91/36
f 5/91/36 71/86/36 7/93/36
f 7/93/36 71/86/36 9/95/36
f 9/95/36 71/86/36 11/97/36
f 11/97/36 71/86/36 13/99/36
f 13/99/36 71/86/36 15/101/36
f 15/101/36 71/86/36 17/103/36
f 17/103/36 71/86/36 19/105/36
f 19/105/36 71/86/36 21/107/36
f 21/107/36 71/86/36 23/109/36
f 23/109/36 71/86/36 25/111/36
f 25/111/36 71/86/36 27/113/36
f 27/113/36 71/86/36 29/115/36
f 29/115/36 71/86/36 31/117/36
f 31/117/36 71/86/36 33/119/36
f 33/119/36 71/86/36 35/121/36
f 35/121/36 71/86/36 37/123/36
f 37/123/36 71/86/36 39/125/36
f 39/125/36 71/86/36 41/127/36
f 41/127/36 71/86/36 43/129/36
f 43/129/36 71/86/36 45/131/36
f 45/131/36 71/86/36 47/133/36
f 47/133/36 71/86/36 49/135/36
f 49/135/36 71/86/36 51/137/36
f 51/137/36 71/86/36 53/139/36
f 53/139/36 71/86/36 55/141/36
f 55/141/36 71/86/36 57/143/36
f 57/143/36 71/86/36 59/145/36
f 59/145/36 71/86/36 61/147/36
f 61/147/36 71/86/36 63/149/36
f 63/149/36 71/86/36 65/151/36
f 65/151/36 71/86/36 67/153/36
f 67/153/36 71/86/36 69/155/36
f 69/155/36 71/86/36 1/85/36
f 4/90/37 72/89/37 2/88/37
f 6/92/37 72/89/37 4/90/37
f 8/94/37 72/89/37 6/92/37
f 10/96/37 72/89/37 8/94/37
f 12/98/37 72/89/37 10/96/37
f 14/100/37 72/89/37 12/98/37
f 16/102/37 72/89/37 14/100/37
f 18/104/37 72/89/37 16/102/37
f 20/106/37 72/89/37 18/104/37
f 22/108/37 72/89/37 20/106/37
f 24/110/37 72/89/37 22/108/37
f 26/112/37 72/89/37 24/110/37
f 28/114/37 72/89/37 26/112/37
f 30/116/37 72/89/37 28/114/37
f 32/118/37 72/89/37 30/116/37
f 34/120/37 72/89/37 32/118/37
f 36/122/37 72/89/37 34/120/37
f 38/124/37 72/89/37 36/122/37
f 40/126/37 72/89/37 38/124/37
f 42/128/37 72/89/37 40/126/37
f 44/130/37 72/89/37 42/128/37
f 46/132/37 72/89/37 44/130/37
f 48/134/37 72/89/37 46/132/37
f 50/136/37 72/89/37 48/134/37
f 52/138/37 72/89/37 50/136/37
f 54/140/37 72/89/37 52/138/37
f 56/142/37 72/89/37 54/140/37
f 58/144/37 72/89/37 56/142/37
f 60/146/37 72/89/37 58/144/37
f 62/148/37 72/89/37 60/146/37
f 64/150/37 72/89/37 62/148/37
f 66/152/37 72/89/37 64/150/37
f 68/154/37 72/89/37 66/152/37
f 70/156/37 72/89/37 68/154/37
f 2/88/37 72/89/37 70/156/37
f 4/4/2 2/2/1 1/1/1
f 1/1/1 3/3/2 4/4/2
f 6/8/3 4/6/2 3/5/2
f 3/5/2 5/7/3 6/8/3
f 8/12/4 6/10/3 5/9/3
f 5/9/3 7/11/4 8/12/4
f 10/16/5 8/14/4 7/13/4
f 7/13/4 9/15/5 10/16/5
f 12/20/6 10/18/5 9/17/5
f 9/17/5 11/19/6 12/20/6
f 14/24/7 12/22/6 11/21/6
f 11/21/6 13/23/7 14/24/7
f 16/28/8 14/26/7 13/25/7
f 13/25/7 15/27/8 16/28/8
f 18/30/9 16/26/8 15/25/8
f 15/25/8 17/29/9 18/30/9
f 20/30/10 18/26/9 17/25/9
f 17/25/9 19/29/10 20/30/10
f 22/30/11 20/26/10 19/25/10
f 19/25/10 21/29/11 22/30/11
f 24/28/12 22/26/11 21/25/11
f 21/25/11 23/27/12 24/28/12
f 26/28/13 24/22/12 23/21/12
f 23/21/12 25/27/13 26/28/13
f 28/24/14 26/18/13 25/17/13
f 25/17/13 27/23/14 28/24/14
f 30/16/15 28/32/14 27/31/14
f 27/31/14 29/15/15 30/16/15
f 32/34/16 30/10/15 29/9/15
f 29/9/15 31/33/16 32/34/16
f 34/38/17 32/36/16 31/35/16
f 31/35/16 33/37/17 34/38/17
f 36/4/18 34/40/17 33/39/17
f 33/39/17 35/3/18 36/4/18
f 38/44/19 36/42/18 35/41/18
f 35/41/18 37/43/19 38/44/19
f 40/48/20 38/46/19 37/45/19
f 37/45/19 39/47/20 40/48/20
f 42/52/21 40/50/20 39/49/20
f 39/49/20 41/51/21 42/52/21
f 44/56/22 42/54/21 41/53/21
f 41/53/21 43/55/22 44/56/22
f 46/60/23 44/58/22 43/57/22
f 43/57/22 45/59/23 46/60/23
f 48/64/24 46/62/23 45/61/23
f 45/61/23 47/63/24 48/64/24
f 50/68/25 48/66/24 47/65/24
f 47/65/24 49/67/25 50/68/25
f 52/70/26 50/66/25 49/65/25
f 49/65/25 51/69/26 52/70/26
f 54/70/27 52/72/26 51/71/26
f 51/71/26 53/69/27 54/70/27
f 56/70/28 54/72/27 53/71/27
f 53/71/27 55/69/28 56/70/28
f 58/70/29 56/72/28 55/71/28
f 55/71/28 57/69/29 58/70/29
f 60/70/30 58/66/29 57/65/29
f 57/65/29 59/69/30 60/70/30
f 62/68/31 60/62/30 59/61/30
f 59/61/30 61/67/31 62/68/31
f 64/64/32 62/74/31 61/73/31
f 61/73/31 63/63/32 64/64/32
f 66/76/33 64/58/32 63/57/32
f 63/57/32 65/75/33 66/76/33
f 68/56/34 66/78/33 65/77/33
f 65/77/33 67/55/34 68/56/34
f 70/82/35 68/80/34 67/79/34
f 67/79/34 69/81/35 70/82/35
f 2/84/1 70/46/35 69/45/35
f 69/45/35 1/83/1 2/84/1

